<?xml version="1.0" encoding="utf-8"?>
<!DOCTYPE svg PUBLIC "-//W3C//DTD SVG 1.1//EN" "http://www.w3.org/Graphics/SVG/1.1/DTD/svg11.dtd">
<svg version="1.1" xmlns="http://www.w3.org/2000/svg" xmlns:xlink="http://www.w3.org/1999/xlink" x="0px" y="0px" viewBox="0 0 1000 1000" enable-background="new 0 0 1000 1000" xml:space="preserve">
<metadata> Svg Vector Icons : http://www.onlinewebfonts.com/icon </metadata>
<g><path d="M486.8,215.7c23.2-12.2,43.7-28.7,59.3-47.3c31.8-37.8,56.5-89.6,52.2-158.4c-1.6,0-3.3,0-4.9,0C534,18.4,487.8,45,455.7,81.9c-31.8,36.2-58.9,85-54,153.5C435.2,238.9,463.3,228.1,486.8,215.7z M768.2,547.8c-8.4-102.1,46.4-163.3,105.1-203.5c-34.5-49.3-84.1-85-157.3-95.3c-40.7-5.7-78.6,0.1-110.6,10.3c-15.7,5.1-30.8,11.7-45.7,17.4c-15.5,5.9-30.7,12.8-47.9,14.8c-12.7,1.4-25.8-2.4-37.6-6.5c-33-11.6-65.6-27.9-101.8-33.8c-57.2-9.1-111.2,11.7-144.9,32.7c-74,46.3-119.2,121.8-125.6,235.8c0.1,0.6-0.2,1-0.7,1.1c0,13.4,0,26.9,0,40.3c11.3,156.1,69.2,269.2,144.9,361.6c25.4,30.8,54.8,60.4,101.2,67.5c5.6,0,11.3,0,16.8,0c63.1-7.8,100.8-47.9,176.9-39.2c30.1,3.4,55.9,17.2,81.6,27.2c26.1,10.1,63.2,15.1,92.6,4.9c50-17.5,83.7-67.4,111.1-107.2c30.1-44,54.6-91.4,72.4-146c0-0.4,0-0.8,0-1.1C830.4,696.4,775.8,641,768.2,547.8z"/></g>
</svg>
