<?xml version="1.0" encoding="UTF-8"?> <svg xmlns="http://www.w3.org/2000/svg" id="Layer_1" viewBox="0 0 1000 640"><defs><style>.cls-1{fill:#fbbc05;}.cls-2{fill:#ea4335;}.cls-3{fill:#4285f4;}.cls-4{fill:#34a853;}</style></defs><path id="Path_14118" class="cls-3" d="M811.57,326.63c-.03-20.32-1.73-40.6-5.07-60.64H504.64v120.51h172.83c-7.67,39.19-30.78,73.65-64.11,95.63v80.13h103.11c60.37-55.82,95.1-138.1,95.1-235.64Z"></path><path id="Path_14119" class="cls-4" d="M508.98,640c86.55,0,158.94-28.85,211.83-77.73l-103.12-80.14c-32.34,20.93-70.2,31.72-108.71,30.99-82.15-1.02-154.49-54.33-179.78-132.49h-106.32v82.54c54.22,108.34,164.95,176.78,286.09,176.84Z"></path><path id="Path_14120" class="cls-1" d="M329.2,381.19c-6.78-19.68-10.21-40.36-10.15-61.17,.07-20.8,3.5-41.46,10.15-61.17v-82.55h-106.32c-45.94,90.3-45.94,197.12,0,287.42l106.32-82.54Z"></path><path id="Path_14121" class="cls-2" d="M506.5,126.91c45.36-.71,89.16,16.57,121.82,48.06l90.56-91.33C661.72,29.09,585.49-.92,506.5,.02c-120.45,.28-230.34,68.8-283.61,176.83l105.39,82.54c24.73-77.9,96.5-131.25,178.22-132.48Z"></path></svg>
